<?xml version="1.0" encoding="UTF-8"?>
<svg version="1.1" xmlns="http://www.w3.org/2000/svg" width="500" height="500">
<path d="M0 0 C14.28528407 5.18021468 22.92806792 26.01223362 29.12109375 38.91015625 C40.36118707 63.00749917 49.47615333 93.86948781 41 120 C34.83151977 135.74293786 26.13815335 147.6507599 10.375 154.6875 C0.36820458 158.59983421 -10.27821014 161.23415787 -21 162 C-21 161.01 -21 160.02 -21 159 C-20.37432129 158.67725098 -19.74864258 158.35450195 -19.10400391 158.02197266 C-16.27563217 156.560218 -13.45029755 155.09268704 -10.625 153.625 C-9.64015625 153.11710938 -8.6553125 152.60921875 -7.640625 152.0859375 C-6.22910156 151.35117187 -6.22910156 151.35117187 -4.7890625 150.6015625 C-3.91975098 150.15119629 -3.05043945 149.70083008 -2.15478516 149.23681641 C0.11603971 148.05813298 0.11603971 148.05813298 2 146 C1.31679687 146.03480469 0.63359375 146.06960938 -0.0703125 146.10546875 C-7.39292919 146.30211191 -14.21324271 145.6101993 -21.4375 144.5 C-29.22701679 143.34228088 -36.87212852 142.67356638 -44.75 142.625 C-45.62970459 142.61146484 -46.50940918 142.59792969 -47.41577148 142.58398438 C-56.93496588 142.64912856 -65.90785898 144.87428442 -72.77734375 151.7890625 C-80.18640071 159.90299803 -83.34496074 166.69422729 -83.2109375 177.7109375 C-82.58186474 187.51981271 -79.69175735 197.71108393 -72.2890625 204.58984375 C-60.99557487 212.4285725 -46.94818492 213.44159326 -33.73828125 211.52734375 C-13.14088199 207.03091803 0.63532868 192.8457017 12.29370117 176.21728516 C14.7121496 172.77160897 17.19887403 169.44104734 19.875 166.1875 C24.10288108 161.01243579 27.90030403 155.5553266 31.70068359 150.06323242 C40.89276569 136.8440701 40.89276569 136.8440701 49 134 C52 133.75 52 133.75 54 134 C54.24363281 133.28070313 54.48726562 132.56140625 54.73828125 131.8203125 C61.59574925 116.49185461 81.81691821 105.60814321 96 98 C96.66 98 97.32 98 98 98 C98 97.34 98 96.68 98 96 C97.319375 95.814375 96.63875 95.62875 95.9375 95.4375 C90.72222058 92.88534199 86.14823415 88.46823238 84 83 C83.2920464 78.01139669 83.48892176 74.06001413 85.6875 69.5 C89.21207033 65.6896537 91.57824544 65.14458521 96.6875 64.625 C105.88180463 64.91935627 112.68449676 69.7197789 119 76 C118.75 78.375 118.75 78.375 118 81 C115.9375 82.3125 115.9375 82.3125 114 83 C113.40832031 82.59007812 112.81664062 82.18015625 112.20703125 81.7578125 C111.41683594 81.21898437 110.62664062 80.68015625 109.8125 80.125 C109.03519531 79.59132813 108.25789062 79.05765625 107.45703125 78.5078125 C103.12987549 75.85235603 99.77526288 74.73932632 94.6875 74.875 C93.80449219 74.89304687 92.92148437 74.91109375 92.01171875 74.9296875 C91.34785156 74.95289063 90.68398438 74.97609375 90 75 C90.7425 75.928125 90.7425 75.928125 91.5 76.875 C93 79 93 79 93 81 C93.7734375 81.37125 93.7734375 81.37125 94.5625 81.75 C96.59479524 82.79220269 98.53585678 83.90090992 100.5 85.0625 C105.53572173 87.92636711 110.18401858 88.79392762 116 88 C125.91974546 85.25733136 135.04853988 80.402447 142.05859375 72.75390625 C144 71 144 71 148 71 C146.75266506 81.27126424 141.0698576 90.29805179 133.0871582 96.75097656 C129.78054067 99.15987816 126.36245939 101.22312467 122.79296875 103.20703125 C121.75459869 103.78766075 121.75459869 103.78766075 120.69525146 104.38002014 C115.53244257 107.23192025 110.28910652 109.88812875 104.984375 112.46484375 C104.22712631 112.83334442 103.46987762 113.20184509 102.68968201 113.58151245 C99.60026951 115.080986 96.50955363 116.5769574 93.40722656 118.04956055 C77.24891959 125.74214359 61.75686494 135.46593547 55 153 C52.11604567 161.76157863 53.24481839 169.36709763 56 178 C56.66 178 57.32 178 58 178 C58.23460937 177.17371094 58.46921875 176.34742188 58.7109375 175.49609375 C63.01293696 163.82854975 70.58973381 153.68812759 81.0625 147.0625 C92.66740352 142.84491655 111.01873333 146.25732504 122.1875 150.875 C125.94506508 152.77571385 128.98533708 155.06263613 132 158 C132 158.66 132 159.32 132 160 C132.66 160 133.32 160 134 160 C135.25390625 161.64453125 135.25390625 161.64453125 136.5625 163.8125 C136.99691406 164.52019531 137.43132812 165.22789062 137.87890625 165.95703125 C141.52802831 172.6068251 141.45163571 182.8084117 139.42138672 190.06933594 C136.67389899 197.34626903 132.72409094 203.87452062 126 208 C125.43023437 208.37253906 124.86046875 208.74507812 124.2734375 209.12890625 C110.23328493 217.22439848 89.307664 217.07096627 74 213 C67.42024536 210.79921151 61.17424921 208.16084698 55 205 C54.73316406 205.71542969 54.46632813 206.43085938 54.19140625 207.16796875 C49.11402444 219.23715501 40.85703178 228.08313745 28.71875 233.03515625 C21.1097594 235.73547332 13.96456465 236.18173141 5.9375 236.25 C5.09840088 236.25942627 4.25930176 236.26885254 3.39477539 236.27856445 C-2.30303921 236.24898426 -7.49458555 235.45748647 -13 234 C-12.72851562 232.10253906 -12.72851562 232.10253906 -12 230 C-10.41210938 229.03027344 -10.41210938 229.03027344 -8.34375 228.359375 C-7.57732178 228.09809814 -6.81089355 227.83682129 -6.02124023 227.56762695 C-5.18923096 227.29781006 -4.35722168 227.02799316 -3.5 226.75 C9.79980629 222.11338175 21.95432777 216.62651025 33.75 208.875 C34.50095947 208.38427002 35.25191895 207.89354004 36.02563477 207.38793945 C40.45111163 204.38107183 44.07043677 201.51989756 47 197 C47.00717569 194.32888323 47.00717569 194.32888323 45.875 191.875 C45.56304687 191.04742187 45.25109375 190.21984375 44.9296875 189.3671875 C44.62289062 188.58601562 44.31609375 187.80484375 44 187 C43.08406366 183.94145592 42.87135674 181.19609108 42.8671875 178.0078125 C42.86589844 177.05519531 42.86460937 176.10257813 42.86328125 175.12109375 C42.86714844 174.13238281 42.87101563 173.14367187 42.875 172.125 C42.87113281 171.14402344 42.86726562 170.16304687 42.86328125 169.15234375 C42.86979724 164.3239975 42.98653966 159.74556826 44 155 C34.06025603 161.07744345 28.62436781 171.4826844 22.66333008 181.20263672 C19.17828901 186.83528612 15.34268296 191.99183713 11 197 C10.29230469 197.82886719 9.58460938 198.65773438 8.85546875 199.51171875 C-3.59272275 213.74756648 -16.57288849 223.35384795 -35 228 C-35.61617187 228.18949219 -36.23234375 228.37898437 -36.8671875 228.57421875 C-48.85152921 230.96669722 -59.84584202 229.02017555 -70.1953125 222.6484375 C-78.79182714 216.61402134 -88.3709412 208.12160137 -90.62109375 197.51953125 C-93.06540704 181.2661078 -91.73218878 168.00161304 -83 154 C-76.57477237 145.56842735 -67.5103639 139.77827111 -57 138 C-45.86605146 137.24031779 -34.67989574 137.61129467 -23.6875 139.5 C-17.157533 140.61871593 -10.8190406 141.32561838 -4.1875 141.375 C-3.46457764 141.38853516 -2.74165527 141.40207031 -1.99682617 141.41601562 C4.04494287 141.36492844 8.66966627 139.84989155 13.40625 136.08984375 C22.31417022 126.93263472 27.96389532 118.17137818 32 106 C32.37125 104.97132813 32.37125 104.97132813 32.75 103.921875 C37.69887017 88.11298419 32.0724437 70.22282066 25 56 C21.51708974 49.89890202 17.67619152 44.24300262 13 39 C14.3628105 48.05633287 16.2784685 56.91508995 18.4375 65.8125 C18.73720703 67.08287109 19.03691406 68.35324219 19.34570312 69.66210938 C21.07199864 77.03481839 21.07199864 77.03481839 23.7109375 84.109375 C25.47079962 88.05573248 25.2239541 90.74487209 25 95 C22 94 22 94 20.82080078 92.22851562 C20.44938965 91.46216797 20.07797852 90.69582031 19.6953125 89.90625 C19.07088257 88.62053101 19.07088257 88.62053101 18.43383789 87.30883789 C18.00192139 86.38192139 17.57000488 85.45500488 17.125 84.5 C16.45682251 83.07772095 16.45682251 83.07772095 15.77514648 81.62670898 C10.45066953 70.00213703 7.23084014 58.14257278 4.7578125 45.62109375 C4.21555853 43.03001423 3.62013979 40.52225109 2.9296875 37.97265625 C-0.39171429 25.28949562 -0.43222031 13.05637811 0 0 Z M73.4375 171.0625 C67.35922113 178.26937774 67.35922113 178.26937774 65 187 C77.9724392 194.52401474 95.29820067 196.53107126 109.875 192.8125 C112.75729605 191.75369737 113.9453832 191.05622318 116.125 188.8125 C117.75009254 183.58898827 117.84643294 179.12022346 115.5 174.1875 C112.86613916 170.1354064 109.54362952 169.116255 105 168 C104.23429687 167.79632813 103.46859375 167.59265625 102.6796875 167.3828125 C92.33089625 164.953675 82.05970527 164.12267625 73.4375 171.0625 Z " fill="#0F0F0F" transform="translate(202,127)"/>
<path d="M0 0 C14.28528407 5.18021468 22.92806792 26.01223362 29.12109375 38.91015625 C40.36118707 63.00749917 49.47615333 93.86948781 41 120 C34.83151977 135.74293786 26.13815335 147.6507599 10.375 154.6875 C0.36820458 158.59983421 -10.27821014 161.23415787 -21 162 C-21 161.01 -21 160.02 -21 159 C-20.06148193 158.51587646 -20.06148193 158.51587646 -19.10400391 158.02197266 C-16.27563217 156.560218 -13.45029755 155.09268704 -10.625 153.625 C-9.64015625 153.11710938 -8.6553125 152.60921875 -7.640625 152.0859375 C-6.69960937 151.59609375 -5.75859375 151.10625 -4.7890625 150.6015625 C-3.91975098 150.15119629 -3.05043945 149.70083008 -2.15478516 149.23681641 C0.11603971 148.05813298 0.11603971 148.05813298 2 146 C1.31679687 146.03480469 0.63359375 146.06960938 -0.0703125 146.10546875 C-7.39297157 146.30211305 -14.21319443 145.61001099 -21.4375 144.5 C-36.46702648 142.26970338 -52.42196249 140.83310063 -67 146 C-66.67 145.01 -66.34 144.02 -66 143 C-66.99 142.67 -67.98 142.34 -69 142 C-54.97214213 135.67371116 -38.60600006 136.93671432 -23.6875 139.5 C-17.157533 140.61871593 -10.8190406 141.32561838 -4.1875 141.375 C-3.46457764 141.38853516 -2.74165527 141.40207031 -1.99682617 141.41601562 C4.04494287 141.36492844 8.66966627 139.84989155 13.40625 136.08984375 C22.31417022 126.93263472 27.96389532 118.17137818 32 106 C32.37125 104.97132813 32.37125 104.97132813 32.75 103.921875 C37.69887017 88.11298419 32.0724437 70.22282066 25 56 C21.51708974 49.89890202 17.67619152 44.24300262 13 39 C14.3628105 48.05633287 16.2784685 56.91508995 18.4375 65.8125 C18.73720703 67.08287109 19.03691406 68.35324219 19.34570312 69.66210938 C21.07199864 77.03481839 21.07199864 77.03481839 23.7109375 84.109375 C25.47079962 88.05573248 25.2239541 90.74487209 25 95 C22 94 22 94 20.82080078 92.22851562 C20.44938965 91.46216797 20.07797852 90.69582031 19.6953125 89.90625 C19.07088257 88.62053101 19.07088257 88.62053101 18.43383789 87.30883789 C18.00192139 86.38192139 17.57000488 85.45500488 17.125 84.5 C16.45682251 83.07772095 16.45682251 83.07772095 15.77514648 81.62670898 C10.45066953 70.00213703 7.23084014 58.14257278 4.7578125 45.62109375 C4.21555853 43.03001423 3.62013979 40.52225109 2.9296875 37.97265625 C-0.39171429 25.28949562 -0.43222031 13.05637811 0 0 Z " fill="#181818" transform="translate(202,127)"/>
<path d="M0 0 C2 2 2 2 2.0546875 5.15234375 C1.9350072 7.67343524 1.81001653 10.19428031 1.6796875 12.71484375 C1.62881034 16.08031869 1.62881034 16.08031869 4.0078125 17.75390625 C4.66523438 18.16511719 5.32265625 18.57632813 6 19 C6 19.99 6 20.98 6 22 C7.2065625 22.061875 7.2065625 22.061875 8.4375 22.125 C13.39576958 23.3428206 17.23570913 25.54399157 21 29 C22.07856242 32.46680778 21.42916402 34.08102922 19.921875 37.30859375 C18.19724917 40.55525382 16.60846756 43.39153244 14 46 C9.72656 45.71607468 7.08380101 43.92812074 3.6875 41.4375 C2.80449219 40.79683594 1.92148437 40.15617187 1.01171875 39.49609375 C0.34785156 39.00238281 -0.31601562 38.50867188 -1 38 C-0.34 35.03 0.32 32.06 1 29 C-0.32 28.01 -1.64 27.02 -3 26 C-3.2784375 27.051875 -3.2784375 27.051875 -3.5625 28.125 C-10.29754174 41.59508349 -30.79720679 48.34459332 -44 53 C-44.495 51.515 -44.495 51.515 -45 50 C-38.02337155 45.05423942 -30.9865021 40.33054687 -23.6875 35.875 C-17.98487451 32.38254767 -12.76716429 28.73580137 -8 24 C-9.4540625 22.9171875 -9.4540625 22.9171875 -10.9375 21.8125 C-13.01267876 20.061108 -13.92853619 19.16972655 -15 16.625 C-15 12.00220451 -14.36450206 8.56948331 -11.2578125 4.99609375 C-5.16766968 -0.69186983 -5.16766968 -0.69186983 0 0 Z M-6 9 C-6.33 9.99 -6.66 10.98 -7 12 C-5.02 12.99 -5.02 12.99 -3 14 C-3.33 12.35 -3.66 10.7 -4 9 C-4.66 9 -5.32 9 -6 9 Z " fill="#202020" transform="translate(292,129)"/>
<path d="M0 0 C0.76763672 -0.00322266 1.53527344 -0.00644531 2.32617188 -0.00976562 C6.19742864 0.02736064 8.15122542 0.12165028 11.4375 2.3125 C12.82329802 5.67800949 12.39898737 7.98483165 11.25 11.3125 C8.63352674 17.52662399 5.45931979 20.6458515 -0.5625 23.515625 C-4.0479083 24.90434237 -7.06385938 25.43747734 -10.8125 25.375 C-12.66875 25.3440625 -12.66875 25.3440625 -14.5625 25.3125 C-11.75930829 22.31373678 -8.96815083 20.14927273 -5.4375 18.0625 C-4.56867188 17.54171875 -3.69984375 17.0209375 -2.8046875 16.484375 C-0.5625 15.3125 -0.5625 15.3125 1.4375 15.3125 C1.4375 14.6525 1.4375 13.9925 1.4375 13.3125 C-1.00172361 13.39950798 -3.43728414 13.50636002 -5.875 13.625 C-6.91043945 13.65883789 -6.91043945 13.65883789 -7.96679688 13.69335938 C-11.99599555 13.84848787 -11.99599555 13.84848787 -15.35546875 15.85546875 C-15.75378906 16.33628906 -16.15210938 16.81710938 -16.5625 17.3125 C-17.5525 17.3125 -18.5425 17.3125 -19.5625 17.3125 C-18.99830388 13.46509032 -17.92929752 10.89851559 -15.75 7.6875 C-15.24855469 6.93210938 -14.74710938 6.17671875 -14.23046875 5.3984375 C-9.95330635 0.04948031 -6.53668715 -0.13790479 0 0 Z " fill="#1E1E1E" transform="translate(154.5625,226.6875)"/>
<path d="M0 0 C5.72592065 0.35056657 10.0064035 1.67848355 14 6 C15.17090936 10.29333432 13.63535753 12.99412246 11.625 16.75 C10.20826228 19.18579468 8.99948501 21.00051499 7 23 C2.72656 22.71607468 0.08380101 20.92812074 -3.3125 18.4375 C-4.63701172 17.47650391 -4.63701172 17.47650391 -5.98828125 16.49609375 C-6.65214844 16.00238281 -7.31601562 15.50867188 -8 15 C-6.99806563 11.20696275 -6.18975773 8.28463659 -4 5 C-3.34 5 -2.68 5 -2 5 C-1.34 3.35 -0.68 1.7 0 0 Z " fill="#121212" transform="translate(299,152)"/>
<path d="M0 0 C8.73893569 1.48104098 17.47751294 1.85404309 26.32495117 2.14428711 C25.15698242 4.11694336 25.15698242 4.11694336 23.32495117 6.14428711 C15.79918568 7.7240759 7.38965419 5.77050825 -0.11254883 4.64428711 C-15.14528635 2.41928108 -31.09379073 0.97624626 -45.67504883 6.14428711 C-45.34504883 5.15428711 -45.01504883 4.16428711 -44.67504883 3.14428711 C-45.66504883 2.81428711 -46.65504883 2.48428711 -47.67504883 2.14428711 C-32.88101779 -4.52753081 -15.66710843 -2.70187826 0 0 Z " fill="#484848" transform="translate(180.675048828125,266.855712890625)"/>
<path d="M0 0 C-0.55308833 3.03759622 -1.11203116 5.29201749 -3.59472656 7.27148438 C-5.73531731 8.51795788 -7.90703902 9.64698671 -10.125 10.75 C-11.75470815 11.60276193 -13.38226996 12.45963659 -15.0078125 13.3203125 C-16.24966309 13.97435059 -16.24966309 13.97435059 -17.51660156 14.64160156 C-22.16655208 17.1850861 -26.60187195 20.07047769 -31.04736328 22.95214844 C-35.80088198 26 -35.80088198 26 -38 26 C-38.48710473 20.64184795 -38.48710473 20.64184795 -36.5859375 18.13671875 C-32.82541211 15.02945683 -28.66520907 12.85924668 -24.375 10.5625 C-23.52292969 10.09779297 -22.67085938 9.63308594 -21.79296875 9.15429688 C-19.20489996 7.75063173 -16.60521582 6.37154951 -14 5 C-12.64503418 4.27659424 -12.64503418 4.27659424 -11.26269531 3.53857422 C-10.38452148 3.08111816 -9.50634766 2.62366211 -8.6015625 2.15234375 C-7.81346191 1.73847412 -7.02536133 1.32460449 -6.21337891 0.89819336 C-4 0 -4 0 0 0 Z " fill="#282828" transform="translate(318,245)"/>
<path d="M0 0 C6.75 2.625 6.75 2.625 9 6 C8.90353139 9.66580702 8.02017194 10.97611218 5.625 13.8125 C3 16 3 16 0 16 C-1.35500919 14.68870078 -2.68671343 13.35308313 -4 12 C-6.13309192 10.76487921 -6.13309192 10.76487921 -8 10 C-6.34908222 5.70761377 -3.26245434 3.1206085 0 0 Z " fill="#131313" transform="translate(164,363)"/>
<path d="M0 0 C0 0.33 0 0.66 0 1 C-1.98 1.33 -3.96 1.66 -6 2 C0.6 2.33 7.2 2.66 14 3 C14 3.33 14 3.66 14 4 C13.09459473 4.02187378 13.09459473 4.02187378 12.17089844 4.04418945 C-4.15312693 4.40281464 -4.15312693 4.40281464 -20 8 C-19.67 7.01 -19.34 6.02 -19 5 C-19.99 4.67 -20.98 4.34 -22 4 C-14.38989953 0.56799391 -8.33737789 -0.14570175 0 0 Z " fill="#555555" transform="translate(155,265)"/>
<path d="M0 0 C1.15242187 0.00902344 2.30484375 0.01804687 3.4921875 0.02734375 C4.36101562 0.03894531 5.22984375 0.05054688 6.125 0.0625 C6.125 0.7225 6.125 1.3825 6.125 2.0625 C7.445 2.3925 8.765 2.7225 10.125 3.0625 C7.09365616 4.07294795 5.38104057 4.11282949 2.23828125 3.94140625 C1.30048828 3.89306641 0.36269531 3.84472656 -0.60351562 3.79492188 C-2.06821289 3.71081055 -2.06821289 3.71081055 -3.5625 3.625 C-4.55056641 3.57279297 -5.53863281 3.52058594 -6.55664062 3.46679688 C-8.99641676 3.33714694 -11.43578105 3.20218258 -13.875 3.0625 C-13.545 2.4025 -13.215 1.7425 -12.875 1.0625 C-8.56685156 0.04618605 -4.41108185 -0.04501104 0 0 Z " fill="#1F1F1F" transform="translate(161.875,264.9375)"/>
<path d="M0 0 C0 3 0 3 -1.75 5.04296875 C-2.4925 5.75066406 -3.235 6.45835937 -4 7.1875 C-4.7425 7.90292969 -5.485 8.61835938 -6.25 9.35546875 C-7.11625 10.16951172 -7.11625 10.16951172 -8 11 C-8.66 10.67 -9.32 10.34 -10 10 C-8.7121669 8.51749445 -7.41960936 7.03909182 -6.125 5.5625 C-5.40570313 4.73878906 -4.68640625 3.91507812 -3.9453125 3.06640625 C-2 1 -2 1 0 0 Z " fill="#414141" transform="translate(280,276)"/>
<path d="M0 0 C4.29 0.33 8.58 0.66 13 1 C13 1.33 13 1.66 13 2 C11.35 2.33 9.7 2.66 8 3 C8 3.33 8 3.66 8 4 C5.69 4 3.38 4 1 4 C1.66 3.34 2.32 2.68 3 2 C2.01 1.34 1.02 0.68 0 0 Z " fill="#696969" transform="translate(168,266)"/>
<path d="M0 0 C0.66 0.33 1.32 0.66 2 1 C1.67 1.66 1.34 2.32 1 3 C2.32 3.33 3.64 3.66 5 4 C0.545 4.495 0.545 4.495 -4 5 C-4 4.01 -4 3.02 -4 2 C-2.125 0.9375 -2.125 0.9375 0 0 Z " fill="#727272" transform="translate(185,284)"/>
<path d="M0 0 C-0.33 0.33 -0.66 0.66 -1 1 C-0.01 1.66 0.98 2.32 2 3 C-0.31 3.66 -2.62 4.32 -5 5 C-4.67 4.01 -4.34 3.02 -4 2 C-4.99 1.67 -5.98 1.34 -7 1 C-3.375 -1.125 -3.375 -1.125 0 0 Z " fill="#787878" transform="translate(140,268)"/>
<path d="M0 0 C0.66 0.33 1.32 0.66 2 1 C1.34 1.66 0.68 2.32 0 3 C0.66 3.66 1.32 4.32 2 5 C-0.31 5.66 -2.62 6.32 -5 7 C-4.60196439 4.11424181 -4.20990931 3.17810487 -1.9375 1.25 C-1.298125 0.8375 -0.65875 0.425 0 0 Z " fill="#696969" transform="translate(252,175)"/>
<path d="M0 0 C0.66 0.33 1.32 0.66 2 1 C0.6875 3 0.6875 3 -1 5 C-1.99 5 -2.98 5 -4 5 C-3.6875 3.0625 -3.6875 3.0625 -3 1 C-2.01 0.67 -1.02 0.34 0 0 Z " fill="#545454" transform="translate(193,356)"/>
<path d="M0 0 C0 3 0 3 -2.5 5.6875 C-3.325 6.450625 -4.15 7.21375 -5 8 C-5.66 7.67 -6.32 7.34 -7 7 C-4.78071806 4.09197539 -3.07030857 2.04687238 0 0 Z " fill="#484848" transform="translate(246,263)"/>
</svg>
